HIERARCHY
ROOT hip
{
  OFFSET 0 0 0
  CHANNELS 6 Xposition Yposition Zposition Zrotation Yrotation Xrotation
  JOINT abdomen
  {
    OFFSET 0 20.6881 -0.73152
    CHANNELS 3 Zrotation Xrotation Yrotation
    JOINT chest
    {
      OFFSET 0 11.7043 -0.48768
      CHANNELS 3 Zrotation Xrotation Yrotation
      JOINT neck
      {
        OFFSET 0 22.1894 -2.19456
        CHANNELS 3 Zrotation Xrotation Yrotation
        JOINT head
        {
          OFFSET -0.24384 7.07133 1.2192
          CHANNELS 3 Zrotation Xrotation Yrotation
          JOINT leftEye
          {
            OFFSET 4.14528 8.04674 8.04672
            CHANNELS 3 Zrotation Xrotation Yrotation
            End Site
            {
              OFFSET 1 0 0
            }
          }
          JOINT rightEye
          {
            OFFSET -3.6576 8.04674 8.04672
            CHANNELS 3 Zrotation Xrotation Yrotation
            End Site
            {
              OFFSET 1 0 0
            }
          }
        }
      }
      JOINT rCollar
      {
        OFFSET -2.68224 19.2634 -4.8768
        CHANNELS 3 Zrotation Xrotation Yrotation
        JOINT rShldr
        {
          OFFSET -8.77824 -1.95073 1.46304
          CHANNELS 3 Zrotation Xrotation Yrotation
          JOINT rForeArm
          {
            OFFSET -28.1742 -1.7115 0.48768
            CHANNELS 3 Zrotation Xrotation Yrotation
            JOINT rHand
            {
              OFFSET -22.5879 0.773209 7.07136
              CHANNELS 3 Zrotation Xrotation Yrotation
              JOINT rThumb1
              {
                OFFSET -1.2192 -0.487915 3.41376
                CHANNELS 3 Zrotation Xrotation Yrotation
                JOINT rThumb2
                {
                  OFFSET -3.37035 -0.52449 3.41376
                  CHANNELS 3 Zrotation Xrotation Yrotation
                  End Site
                  {
                    OFFSET -1.78271 -1.18214 1.43049
                  }
                }
              }
              JOINT rIndex1
              {
                OFFSET -7.75947 0.938293 5.60832
                CHANNELS 3 Zrotation Xrotation Yrotation
                JOINT rIndex2
                {
                  OFFSET -2.54057 -0.884171 1.56538
                  CHANNELS 3 Zrotation Xrotation Yrotation
                  End Site
                  {
                    OFFSET -1.62519 -0.234802 1.16502
                  }
                }
              }
              JOINT rMid1
              {
                OFFSET -8.24714 1.18213 3.41376
                CHANNELS 3 Zrotation Xrotation Yrotation
                JOINT rMid2
                {
                  OFFSET -3.10165 -0.590103 1.0647
                  CHANNELS 3 Zrotation Xrotation Yrotation
                  End Site
                  {
                    OFFSET -2.48547 -0.328903 0.83742
                  }
                }
              }
              JOINT rRing1
              {
                OFFSET -8.82822 0.546677 1.51678
                CHANNELS 3 Zrotation Xrotation Yrotation
                JOINT rRing2
                {
                  OFFSET -2.60934 -0.819778 -0.0198488
                  CHANNELS 3 Zrotation Xrotation Yrotation
                  End Site
                  {
                    OFFSET -2.33842 -0.294052 0.168128
                  }
                }
              }
              JOINT rPinky1
              {
                OFFSET -8.27202 -0.0477905 -0.4584
                CHANNELS 3 Zrotation Xrotation Yrotation
                JOINT rPinky2
                {
                  OFFSET -1.82734 -0.647385 -0.700984
                  CHANNELS 3 Zrotation Xrotation Yrotation
                  End Site
                  {
                    OFFSET -1.69225 -0.51767 -0.607171
                  }
                }
              }
            }
          }
        }
      }
      JOINT lCollar
      {
        OFFSET 2.68224 19.2634 -4.8768
        CHANNELS 3 Zrotation Xrotation Yrotation
        JOINT lShldr
        {
          OFFSET 8.77824 -1.95073 1.46304
          CHANNELS 3 Zrotation Xrotation Yrotation
          JOINT lForeArm
          {
            OFFSET 28.1742 -1.7115 0.48768
            CHANNELS 3 Zrotation Xrotation Yrotation
            JOINT lHand
            {
              OFFSET 22.5879 0.773209 7.07136
              CHANNELS 3 Zrotation Xrotation Yrotation
              JOINT lThumb1
              {
                OFFSET 1.2192 -0.487915 3.41376
                CHANNELS 3 Zrotation Xrotation Yrotation
                JOINT lThumb2
                {
                  OFFSET 3.37035 -0.52449 3.41376
                  CHANNELS 3 Zrotation Xrotation Yrotation
                  End Site
                  {
                    OFFSET 1.78271 -1.18214 1.43049
                  }
                }
              }
              JOINT lIndex1
              {
                OFFSET 7.75947 0.938293 5.60832
                CHANNELS 3 Zrotation Xrotation Yrotation
                JOINT lIndex2
                {
                  OFFSET 2.54057 -0.884171 1.56538
                  CHANNELS 3 Zrotation Xrotation Yrotation
                  End Site
                  {
                    OFFSET 1.62519 -0.234802 1.16502
                  }
                }
              }
              JOINT lMid1
              {
                OFFSET 8.24714 1.18213 3.41376
                CHANNELS 3 Zrotation Xrotation Yrotation
                JOINT lMid2
                {
                  OFFSET 3.10165 -0.590103 1.0647
                  CHANNELS 3 Zrotation Xrotation Yrotation
                  End Site
                  {
                    OFFSET 2.48547 -0.328903 0.83742
                  }
                }
              }
              JOINT lRing1
              {
                OFFSET 8.82822 0.546677 1.51678
                CHANNELS 3 Zrotation Xrotation Yrotation
                JOINT lRing2
                {
                  OFFSET 2.60934 -0.819778 -0.0198488
                  CHANNELS 3 Zrotation Xrotation Yrotation
                  End Site
                  {
                    OFFSET 2.33842 -0.294052 0.168128
                  }
                }
              }
              JOINT lPinky1
              {
                OFFSET 8.27202 -0.0477905 -0.4584
                CHANNELS 3 Zrotation Xrotation Yrotation
                JOINT lPinky2
                {
                  OFFSET 1.82734 -0.647385 -0.700984
                  CHANNELS 3 Zrotation Xrotation Yrotation
                  End Site
                  {
                    OFFSET 1.69225 -0.51767 -0.607171
                  }
                }
              }
            }
          }
        }
      }
    }
  }
  JOINT rButtock
  {
    OFFSET -8.77824 4.35084 1.2192
    CHANNELS 3 Zrotation Xrotation Yrotation
    JOINT rThigh
    {
      OFFSET 0 -1.70687 -2.19456
      CHANNELS 3 Zrotation Xrotation Yrotation
      JOINT rShin
      {
        OFFSET 0 -36.8199 0.73152
        CHANNELS 3 Zrotation Xrotation Yrotation
        JOINT rFoot
        {
          OFFSET 0.73152 -45.1104 -5.12064
          CHANNELS 3 Zrotation Xrotation Yrotation
          End Site
          {
            OFFSET -1.1221 -3.69964 12.103
          }
        }
      }
    }
  }
  JOINT lButtock
  {
    OFFSET 8.77824 4.35084 1.2192
    CHANNELS 3 Zrotation Xrotation Yrotation
    JOINT lThigh
    {
      OFFSET 0 -1.70687 -2.19456
      CHANNELS 3 Zrotation Xrotation Yrotation
      JOINT lShin
      {
        OFFSET 0 -36.8199 0.73152
        CHANNELS 3 Zrotation Xrotation Yrotation
        JOINT lFoot
        {
          OFFSET -0.73152 -45.1104 -5.12064
          CHANNELS 3 Zrotation Xrotation Yrotation
          End Site
          {
            OFFSET 1.1221 -3.69964 12.103
          }
        }
      }
    }
  }
}
MOTION
Frames:	8
Frame Time:	0.03333
4.9992 63.563 -3.884 -4.875251 20.092414 0.565212 1.438325 9.873137 170.161152 -0.435435 1.783421 -164.991151 -1.583429 14.125103 -4.331271 7.482514 -26.642029 29.41798 -2.3e-05 0.0 -0.001614 0.000163 0.0 0.002229 -1.020664 5.712039 1.323355 55.442224 12.193849 -9.926518 175.718421 7.237688 42.811927 168.153025 -19.08817 143.850997 -173.62035 -11.29147 89.897075 -132.93501 12.316966 66.144024 -158.681217 -30.658163 122.629382 -175.752071 -43.189911 115.215891 -163.011338 -14.051595 144.216807 -8.314124 27.601285 7.011854 0.002341 0.389334 0.124084 -156.234209 -15.929714 173.736063 -160.102408 66.341136 -151.106375 -1.995732 -8.289386 -4.366693 159.164829 -43.954557 -169.561764 168.393662 -41.246078 130.681666 153.553172 -81.449177 53.31502 7.716532 -4.701667 3.120742 173.708912 -11.37802 -89.893226 116.645387 14.830859 -53.958421 39.618414 37.249163 -30.529104 8.395712 20.813274 -3.760206 -1.721399 -5.138565 0.897716 -6.676385 -10.607834 1.106704 144.979182 -5.863953 177.278078 -12.582114 39.406385 4.491899 136.117944 -11.286928 133.467292 6.542556 -19.363125 9.706047 -179.976531 75.750151 -0.017769 166.989187 51.776322 -156.395504 -43.232344 -60.949916 -95.638095 -155.684262 -4.343983 175.571512 179.995843 75.750152 0.003718 -147.975213 15.79153 -107.913087 -59.707887 0.727833 -168.574919 13.172966 -12.409813 -100.659918
5.7111 63.3574 -3.5798000000000005 -5.033669 21.749782 0.167415 -0.286849 12.567397 74.640289 -4.048544 -3.358927 -69.429045 9.906011 30.027531 139.770848 -26.149758 36.449823 -109.475314 0.000597 0.0 0.000751 0.000579 0.0 0.000238 -146.341765 32.441777 151.017165 -113.193291 34.907109 93.294198 139.91699 18.280711 -49.508843 -62.012956 73.945882 45.040902 2.974359 -2.955308 -0.38135 172.968495 -82.08665 98.438435 -162.050574 -36.490833 122.681595 -4.329733 29.571588 -0.912449 -157.074345 3.928021 141.311101 26.151158 -55.542227 4.457371 -0.03201 -2.30174 -0.723839 9.14229 15.321614 2.053759 -121.446786 -32.7729 -119.305149 -147.953819 15.5221 -142.975453 22.551754 52.899231 -24.756109 6.384042 25.675451 -73.772144 160.88547 -72.121793 61.522958 7.23941 -6.055792 3.243749 8.638889 8.246307 -1.932456 -3.879709 -2.954651 -2.55135 157.679894 -28.854366 -122.531343 9.804768 35.139007 -2.300373 164.200188 -17.865592 -144.606779 -6.285439 -9.279976 0.619452 0.090661 -4.529485 1.429029 151.926296 -70.614242 175.787499 -10.276979 33.671427 -8.865472 -15.51631 46.750311 -8.703967 -179.99612 75.750646 -0.003423 166.335403 53.197176 -140.453165 -42.28911 -56.997334 42.808533 47.502681 17.727041 44.635712 -179.987417 75.749475 -0.009224 -148.522273 17.010142 -38.655687 -44.115223 43.694753 -65.480203 -65.054791 62.073858 127.8584
6.347700000000001 63.1628 -3.2924 -5.152151 23.567315 -0.204858 2.337071 14.035734 -2.426342 0.141008 -6.468919 7.193006 -9.328174 22.328975 -70.239341 37.915862 0.214819 92.938584 -0.001352 -0.0 0.004759 -0.001352 -0.0 0.004759 -0.675638 3.868505 0.884493 55.396257 9.966802 -11.8903 178.979262 2.631856 42.575369 166.458632 -23.031022 143.085294 -5.692636 5.510852 1.141148 -124.480042 -19.932356 109.919075 -150.746967 -16.039196 120.933263 -50.76766 55.826258 35.672918 -161.785329 -10.147816 143.739375 -170.044635 -25.030958 143.89986 -0.00231 3.066462 0.962832 -20.680591 71.857703 33.422233 -8.74195 -18.520129 -8.259615 -146.59439 10.450255 -143.341655 159.037167 -40.017194 -168.783892 47.51321 -18.545266 34.528675 -4.092678 -16.954972 137.184288 175.633867 -2.184963 -142.685818 176.004301 -13.634891 -89.744486 16.103191 -45.347135 -1.00113 163.243568 -38.460932 -122.602934 179.972614 -48.806761 -112.269125 -57.961112 -78.698214 -30.187129 -36.865551 -66.381844 -12.484728 -0.00095 0.070778 -0.021349 154.525689 9.884891 -170.522829 -17.318999 60.652691 -12.793706 10.61498 -24.86707 11.345008 179.994014 75.749486 0.003235 164.317007 54.236181 -171.840493 -8.069859 -70.269557 -38.582462 71.592304 20.543901 168.585876 0.002711 -0.000205 0.001145 44.838348 -48.397062 139.996552 51.544816 -14.561232 -67.420693 -70.781507 12.440691 21.21841
6.9107 62.9918 -3.0072 -5.348898 25.410589 -0.518375 1.98728 13.659194 7.758804 -0.340771 -6.275434 -2.882417 -4.377746 31.918537 -136.38242 29.969538 37.115897 147.918979 -0.000432 -0.0 0.002994 -0.000791 0.0 -0.001387 -14.925051 44.221323 16.815236 50.200122 21.029422 22.406626 145.50907 51.863247 70.731433 173.522591 -2.73953 146.046331 -172.376314 -10.056025 89.938232 -20.082876 -40.539393 3.028728 5.914646 -10.160035 -2.965471 -172.079854 -29.409412 108.225645 -14.645229 31.820345 10.64122 8.551725 -15.987187 -1.382944 -145.116103 -0.150196 -179.079058 -47.335035 -76.738296 -68.750734 -144.285957 9.319602 -141.032204 -24.073681 -39.072612 -25.543884 159.136219 -53.727952 -171.730889 -136.442019 29.104408 136.599266 -159.941772 29.089064 -49.987404 167.834293 20.32114 -138.632612 25.577681 21.77188 -8.72295 7.010982 4.684607 -18.522435 -1.586047 -2.621134 0.872275 -52.378613 -46.886589 -9.975504 -9.709736 -30.458084 3.232545 8.474536 28.177664 -6.815661 145.118856 0.244711 179.20326 -11.881223 54.240083 2.486699 2.986633 -7.242294 2.784236 30.724101 -45.69631 31.364893 0.000145 0.000925 0.000187 -10.789628 -18.002201 99.57074 66.68656 -9.852379 157.45296 11.990187 -58.239126 87.468958 179.997724 75.750376 0.001915 -150.94933 16.405555 27.036967 33.570762 48.880836 -137.129581 133.044055 -7.624272 -112.402967
7.416399999999999 62.8454 -2.741 -5.634039 27.320298 -0.859571 1.405801 8.787803 155.022033 -1.921232 0.792451 -149.913169 -8.644886 19.697573 -55.826341 34.843965 -8.247254 78.135646 -0.000338 -0.0 0.000839 -0.000338 -0.0 0.000839 -37.748049 62.037438 40.314788 -113.671688 4.392793 141.285607 1.626934 -28.208671 -136.536071 163.054655 -30.415983 141.151986 -7.956675 7.621075 1.736541 -151.399351 -58.490681 113.911175 14.578092 -26.15674 -5.605728 26.598778 -18.00503 -2.173629 12.801317 -39.44477 -3.14005 13.159994 -30.392158 -1.338179 -145.115341 -0.318314 -179.026744 -155.280252 -1.326547 -179.05669 -145.734764 13.856027 -142.314751 -141.264338 -4.88107 -136.924867 -3.233498 -26.331371 5.164562 98.228747 -41.33898 164.592563 174.253761 25.120654 79.446431 8.584489 -0.566783 2.631982 44.030578 31.642409 -19.22098 -12.40471 -12.900021 -13.83187 167.208487 -44.535025 -121.978213 -17.395736 -7.003858 10.136054 -0.549966 -1.617835 0.301282 -5.626732 -7.293851 0.836364 -0.005795 1.378961 -0.433877 156.286976 -15.217626 -173.653815 138.736337 -5.545813 135.933767 148.545977 15.720379 142.657936 179.988225 75.750128 0.010031 164.541557 58.525574 -58.39656 -68.106502 18.111205 -69.813377 91.267009 -47.750502 171.47908 0.009745 -5.4e-05 0.009015 44.285854 -50.155015 132.793225 65.378878 -2.107643 90.959973 -87.61763 8.494358 154.336426
7.9002 62.6776 -2.4569 -5.972815 29.246147 -1.269726 1.870337 8.458521 160.195968 -1.684644 0.769903 -155.005719 9.696268 29.722738 140.509675 -26.377538 36.905437 -114.810737 -0.001331 0.0 -0.003816 -0.000877 -0.0 0.000635 -11.173323 37.948426 12.836057 -114.025764 -6.974441 164.480267 -0.32813 -20.564977 -137.002021 162.187118 -32.248406 140.559215 -170.556062 -8.238348 89.947705 128.411714 -56.242511 91.383556 5.526115 -9.468806 -2.796462 -10.560323 27.692768 9.380136 -62.259346 59.960077 54.734039 -169.94231 -25.646826 144.145459 -145.002893 -5.221661 -177.482824 12.54746 41.904309 -4.191696 -150.037533 28.980873 -145.936929 -149.666278 17.057893 -142.916914 158.130818 -25.803129 -166.14382 -144.332965 3.231155 158.729873 124.917588 -10.001821 -36.351577 -158.770704 -61.417456 -134.989554 95.284139 37.760937 -54.628511 150.936554 -28.149349 -79.139345 -48.549164 -65.705042 -6.579447 147.516455 0.261507 -113.550386 -19.761292 -55.053834 0.930015 165.600499 -11.400876 -143.828651 0.036051 -2.580678 0.811186 -10.142333 5.175999 -0.59388 33.776243 -43.404224 32.703 24.529159 -41.720722 26.160526 179.970799 75.750976 0.021081 163.23175 58.605991 -164.060178 -23.001913 -61.376576 -107.438174 -41.499833 -2.494933 -124.02515 179.986678 75.750307 0.012272 -153.25024 14.654659 65.503545 59.093235 10.250431 4.411285 13.845956 -29.011017 -91.21486
8.4372 62.4328 -2.1978999999999997 -6.636878 31.01744 -1.954052 0.66386 10.696259 84.937134 -3.37879 -3.2725 -79.400704 2.779798 13.17912 19.527327 -9.063131 -25.756817 -5.307585 -0.001188 0.0 -0.002229 -0.001188 0.0 -0.002229 -3.96155 18.64871 4.865888 53.403912 -61.64441 -10.133146 -31.426101 41.926219 129.897489 -0.028682 5.404635 0.766226 -172.635896 -10.314188 89.932375 -161.674134 -1.468411 85.396498 -1.568875 2.502407 0.909385 -14.136655 29.345547 10.882755 72.916149 -80.514472 44.319607 -171.938564 -30.110261 143.949888 -145.113472 -0.456112 -178.985179 -154.666294 -7.581906 -178.2253 -96.761301 -47.83201 -95.016073 -11.000832 -27.560445 -13.814438 3.851391 18.234018 -4.737916 -59.948332 12.267938 -32.197087 5.537403 -25.382221 -98.33615 6.248693 -7.555721 3.276265 -3.39279 -3.373988 0.422635 19.211957 18.207213 -14.859377 7.262071 10.784799 -4.550554 165.72232 -17.75514 -109.921473 166.784948 -26.153929 -145.191022 176.564257 -41.567587 -142.520422 0.002025 3.108402 -0.97657 27.75982 74.226585 -40.585015 150.194123 29.581183 146.063961 151.681749 23.319522 144.112086 179.997026 75.74895 0.001115 162.163883 60.42959 170.76939 25.456459 -58.70685 -61.031337 -114.774998 -45.613762 177.033191 179.993753 75.749443 0.005883 -153.422154 12.54235 162.134319 31.652529 -54.648307 123.530288 131.296715 -23.140633 -115.303371
8.9976 62.120799999999996 -1.9515 -7.246216 32.565488 -2.588136 3.21978 7.897084 170.147759 -1.118807 0.919344 -164.545455 5.770735 14.043626 36.531189 -19.247272 -20.598594 -25.070312 -0.002952 -0.0 0.002178 0.002746 0.0 0.001589 1.781141 -12.332437 -2.549028 -88.62592 -48.750181 -136.736352 -119.278502 43.01646 -118.542935 4.567687 -9.253334 1.800817 -172.798646 -10.475873 89.927289 16.511585 -62.042486 15.966588 -3.406212 5.31084 2.029136 152.004915 -54.581433 88.555112 -165.563199 -22.256691 144.962219 -8.276597 27.480494 6.956737 -1.223176 21.853294 7.201237 -155.432276 18.509875 169.556195 -111.175474 -41.084151 -109.230167 -174.955458 76.169651 -140.509861 159.159387 -43.789143 -169.530132 -122.265433 38.787988 133.983435 -9.86507 13.494273 -100.680204 11.394409 8.942528 1.291898 161.990069 0.314181 -89.216323 -81.098013 -62.922786 -60.249706 -77.64387 -74.24564 -30.221784 -19.185603 -4.282475 6.43313 18.283265 36.795546 -13.742123 -14.107869 -32.262092 1.236168 -1.3e-05 -0.162622 0.05162 88.950702 78.357847 -102.437769 131.329926 -20.030284 128.894348 151.922025 27.353453 144.959125 -179.962598 75.748992 -0.030157 162.085787 64.376493 5.362045 -1.530107 62.186623 118.740228 35.545508 52.13997 -158.423068 179.875899 75.749485 0.097637 -152.886719 12.293208 -140.186845 -44.299837 -40.925419 64.665481 142.55091 -28.112029 -79.465035
